:SAMPLES-PER-SECOND 30
:FULLY-SPECIFIED
:DEGREES
821
root  -6.1866 42.2176 -0.0670346 5.0271 88.0194 9.78223
RightUpLeg  -10.4457 -5.30274 -6.55121
RightLeg  20.7847 2.22187 0.706941
RightFoot  18.9786 -2.38953 9.2268
RightToes  -2.32832e-010 0 -3.6325e-017
Spine  20.9022 -1.12097 -7.89421
Spine1  -1.62567 -3.40267 5.6566
HEad  -14.1292 8.94924 -0.284364
LeftShoulder1  1.2022 -5.43824 -5.6741
LeftArm  3.17503 18.6748 -58.4348
LeftForeArm  137.626 -76.11 -134.818
LeftHand  -1.23279 -1.65701 20.3605
RightShoulder  0.781356 0.874103 10.6294
RightArm  15.5813 -50.5614 35.1792
RightForeArm  166.082 56.4228 164.642
RightHand  -0.555391 0.0469692 -11.8954
LeftUpLeg  -10.721 16.05 11.9724
LeftLeg  33.1528 4.58812 3.53399
LeftFoot  22.6714 5.44212 -18.1324
LeftToes  2.2737e-010 4.38529e-011 2.18788e-011
822
root  -6.32546 42.3946 -0.323329 -48.6383 87.3689 -45.3588
RightUpLeg  -12.9248 -2.7323 -4.87424
RightLeg  21.9219 -3.44025 -1.73804
RightFoot  18.2215 -0.812516 3.63743
RightToes  -2.32832e-010 0 -3.6325e-017
Spine  20.7969 -1.86609 -10.5383
Spine1  -1.67197 -5.78721 13.1578
HEad  -15.5251 13.5378 -1.93404
LeftShoulder1  1.23901 -5.85922 -5.42808
LeftArm  2.84765 24.8957 -54.5812
LeftForeArm  127.459 -77.9837 -124.53
LeftHand  -1.35336 -1.92368 21.5069
RightShoulder  0.48204 -0.404692 8.15653
RightArm  15.1603 -45.8988 37.6925
RightForeArm  167.137 54.7681 165.592
RightHand  -0.479306 -0.207532 -10.7678
LeftUpLeg  -10.7324 14.3386 17.3982
LeftLeg  28.5598 10.929 6.71637
LeftFoot  25.5242 4.97537 -15.3536
LeftToes  2.2737e-010 4.38529e-011 2.18788e-011
823
root  -6.3257 42.2235 -0.579109 -74.7595 84.5567 -73.0005
RightUpLeg  -14.2622 -1.33399 -2.17263
RightLeg  21.6706 -9.51755 -4.34028
RightFoot  21.9277 0.287014 -0.485956
RightToes  -2.32832e-010 0 -3.6325e-017
Spine  20.0555 -3.30264 -11.5488
Spine1  -1.06069 -8.3602 18.6473
HEad  -16.7132 18.3757 -2.83355
LeftShoulder1  1.14048 -5.57432 -4.6761
LeftArm  3.27188 32.2716 -51.7101
LeftForeArm  114.208 -79.272 -111.813
LeftHand  -1.44678 -2.18772 22.1715
RightShoulder  0.283137 -1.56786 7.13389
RightArm  13.0809 -40.8628 41.7274
RightForeArm  167.335 55.5097 165.212
RightHand  -0.446944 -0.294912 -10.2062
LeftUpLeg  -10.1047 12.4836 24.0201
LeftLeg  22.0416 12.252 5.76762
LeftFoot  30.2803 4.7241 -12.9044
LeftToes  2.2737e-010 4.38529e-011 2.18788e-011
824
root  -6.20545 41.6776 -0.893582 -80.8579 80.9636 -80.803
RightUpLeg  -14.5133 -2.75789 0.808174
RightLeg  19.7196 -10.7609 -4.46461
RightFoot  26.6807 -0.303582 1.37824
RightToes  -2.32832e-010 0 -3.6325e-017
Spine  19.5245 -4.56297 -11.8178
Spine1  -1.73885 -10.3972 23.9652
HEad  -16.8531 22.5646 -4.07175
LeftShoulder1  1.18174 -5.41167 -5.44463
LeftArm  4.07093 39.475 -49.241
LeftForeArm  100.334 -79.8774 -98.6527
LeftHand  -1.48471 -2.06049 23.1117
RightShoulder  0.120162 -2.65619 6.75678
RightArm  11.3794 -36.7638 44.2723
RightForeArm  167.684 56.8456 164.526
RightHand  -0.444371 -0.133211 -9.84649
LeftUpLeg  -9.37715 9.14671 30.556
LeftLeg  14.9639 7.02353 3.2939
LeftFoot  34.3526 4.8482 -11.9605
LeftToes  2.2737e-010 4.38529e-011 2.18788e-011
825
root  -6.08475 40.7145 -1.38373 -85.033 78.4201 -86.2731
RightUpLeg  -13.9935 -5.9746 2.0641
RightLeg  18.5741 -7.05928 -2.78107
RightFoot  23.2023 -2.28894 8.13639
RightToes  -2.32832e-010 0 -3.6325e-017
Spine  20.0982 -4.86536 -12.6333
Spine1  -3.69142 -11.562 31.261
HEad  -16.8136 24.7936 -6.14744
LeftShoulder1  1.39885 -5.05428 -8.96391
LeftArm  4.87115 44.023 -47.1844
LeftForeArm  89.7403 -79.9277 -89.353
LeftHand  -1.47307 -1.59454 24.4007
RightShoulder  -0.0141029 -3.57626 7.12575
RightArm  9.96964 -34.1285 43.4278
RightForeArm  167.931 57.2726 164.307
RightHand  -0.42296 -0.156879 -9.41299
LeftUpLeg  -9.11672 4.72893 34.524
LeftLeg  11.548 1.71705 3.56773
LeftFoot  31.1149 5.45883 -14.5738
LeftToes  2.2737e-010 4.38529e-011 2.18788e-011
826
root  -6.09397 39.4448 -2.06988 -83.9629 78.2731 -85.585
RightUpLeg  -13.5205 -8.79245 0.118096
RightLeg  19.9514 -1.17069 -0.600525
RightFoot  10.554 -2.90665 15.2884
RightToes  -2.32832e-010 0 -3.6325e-017
Spine  20.8682 -3.81737 -12.9355
Spine1  -4.72172 -10.9668 35.6609
HEad  -17.875 23.3974 -7.92805
LeftShoulder1  1.46659 -3.76916 -13.188
LeftArm  6.00357 43.4401 -46.5769
LeftForeArm  85.0746 -79.8339 -86.2105
LeftHand  -1.46465 -1.27683 25.372
RightShoulder  -0.0541703 -3.81831 9.24648
RightArm  6.04339 -34.469 41.4926
RightForeArm  166.667 57.843 163.867
RightHand  -0.410329 -0.592668 -9.93288
LeftUpLeg  -9.17463 -4.36523 35.8433
LeftLeg  14.9321 9.66124 4.60782
LeftFoot  18.8332 5.4044 -20.5686
LeftToes  2.2737e-010 4.38529e-011 2.18788e-011
827
root  -6.27865 38.0707 -2.9795 -64.6167 79.6347 -66.0918
RightUpLeg  -15.6902 -9.61314 -4.51205
RightLeg  24.7645 4.20771 1.91116
RightFoot  -1.81053 -1.57296 18.1072
RightToes  -2.32832e-010 0 -3.6325e-017
Spine  20.4706 -1.75274 -9.84241
Spine1  -3.59406 -7.8136 30.2367
HEad  -19.9891 18.2948 -7.8057
LeftShoulder1  1.18457 -1.89464 -15.0267
LeftArm  7.93643 38.3211 -47.7995
LeftForeArm  87.9687 -79.8177 -89.9129
LeftHand  -1.46281 -1.35775 25.0564
RightShoulder  0.0489922 -3.24229 12.6152
RightArm  -1.93048 -38.0236 43.4235
RightForeArm  163.348 60.529 161.797
RightHand  -0.455708 -1.00372 -11.9826
LeftUpLeg  -9.0143 -4.6456 32.4424
LeftLeg  22.3847 15.1543 6.89027
LeftFoot  3.12993 3.53081 -27.2146
LeftToes  2.2737e-010 4.38529e-011 2.18788e-011
